<svg width="350" height="124" viewBox="0 0 350 124" fill="none" xmlns="http://www.w3.org/2000/svg">
<mask id="mask0_1508_858" style="mask-type:alpha" maskUnits="userSpaceOnUse" x="0" y="0" width="350" height="124">
<rect width="350" height="124" fill="#D9D9D9"/>
</mask>
<g mask="url(#mask0_1508_858)">
<g filter="url(#filter0_d_1508_858)">
<rect x="23" y="69.3096" width="132" height="119" rx="10" transform="rotate(-15 23 69.3096)" fill="white"/>
<path d="M49.712 97.3513L47.6869 97.8939L48.8491 84.0298L51.0533 83.4392L58.9919 94.8647L56.9668 95.4074L50.6191 86.0172L50.5204 86.0437L49.712 97.3513ZM48.7248 92.3085L55.2942 90.5483L55.7243 92.1536L49.1549 93.9138L48.7248 92.3085ZM61.9613 83.9046L62.3584 85.3864L57.1782 86.7744L56.7811 85.2926L61.9613 83.9046ZM57.5615 82.6482L59.4076 82.1536L61.8114 91.1247C61.9074 91.4828 62.0331 91.7381 62.1887 91.8906C62.3431 92.0389 62.5135 92.1233 62.7 92.144C62.8894 92.1594 63.0849 92.1401 63.2866 92.0861C63.4348 92.0463 63.5617 92.0013 63.6673 91.951C63.773 91.9006 63.855 91.861 63.9134 91.8321L64.6555 93.2678C64.5595 93.3376 64.4182 93.4196 64.2317 93.5137C64.0462 93.6119 63.8059 93.7028 63.5106 93.7863C63.0271 93.9247 62.5512 93.9596 62.0828 93.891C61.6144 93.8223 61.1998 93.6334 60.839 93.3242C60.4782 93.015 60.2212 92.5743 60.0679 92.0022L57.5615 82.6482ZM68.4304 82.1712L68.8274 83.653L63.6472 85.041L63.2502 83.5592L68.4304 82.1712ZM64.0306 80.9148L65.8767 80.4202L68.2805 89.3914C68.3764 89.7495 68.5022 90.0047 68.6577 90.1572C68.8122 90.3055 68.9826 90.39 69.169 90.4106C69.3584 90.426 69.554 90.4067 69.7557 90.3527C69.9039 90.313 70.0308 90.2679 70.1364 90.2176C70.242 90.1672 70.324 90.1276 70.3825 90.0987L71.1245 91.5344C71.0285 91.6042 70.8873 91.6862 70.7007 91.7803C70.5153 91.8785 70.2749 91.9694 69.9797 92.0529C69.4962 92.1913 69.0202 92.2262 68.5518 92.1576C68.0835 92.089 67.6689 91.9001 67.3081 91.5908C66.9473 91.2816 66.6903 90.841 66.537 90.2688L64.0306 80.9148ZM77.0504 90.2311C76.116 90.4815 75.2578 90.4975 74.4758 90.2791C73.6968 90.0555 73.0265 89.6285 72.4649 88.9981C71.9064 88.3625 71.4953 87.5528 71.2317 86.569C70.9714 85.5976 70.9231 84.6929 71.0868 83.8549C71.2546 83.0159 71.6101 82.3008 72.1531 81.7097C72.7003 81.1175 73.4144 80.7034 74.2952 80.4673C74.8303 80.324 75.3727 80.2735 75.9223 80.3159C76.4719 80.3584 76.997 80.5154 77.4978 80.7871C77.9985 81.0588 78.4452 81.4664 78.8378 82.0097C79.2294 82.5489 79.5404 83.2486 79.7709 84.1089L79.9463 84.7633L72.4075 86.7833L72.0369 85.4003L77.7666 83.8651C77.6365 83.3793 77.4224 82.9757 77.1245 82.654C76.8254 82.3283 76.4676 82.1043 76.0511 81.9821C75.6386 81.8588 75.1937 81.8611 74.7162 81.9891C74.1976 82.128 73.779 82.377 73.4604 82.7358C73.1449 83.0895 72.9368 83.4982 72.8361 83.9619C72.7383 84.4205 72.7529 84.8864 72.8797 85.3598L73.1692 86.4403C73.3391 87.0742 73.5947 87.5836 73.9361 87.9686C74.2816 88.3525 74.6875 88.6077 75.1537 88.7342C75.6189 88.8566 76.1211 88.8456 76.6603 88.7011C77.0101 88.6074 77.3159 88.4725 77.5776 88.2965C77.8381 88.1164 78.0464 87.8974 78.2022 87.6394C78.3581 87.3815 78.4519 87.0895 78.4836 86.7633L80.3153 86.61C80.3132 87.162 80.1829 87.68 79.9244 88.164C79.6688 88.6428 79.2981 89.0619 78.8121 89.4216C78.3291 89.776 77.7419 90.0458 77.0504 90.2311ZM83.4535 82.2751L84.9623 87.906L83.1162 88.4006L80.5751 78.917L82.3471 78.4422L82.7607 79.9858L82.878 79.9543C82.9616 79.3937 83.1952 78.8988 83.5787 78.4695C83.9663 78.0392 84.5162 77.7286 85.2283 77.5378C85.8745 77.3647 86.4769 77.3489 87.0354 77.4904C87.5928 77.6278 88.0764 77.9261 88.4862 78.3854C88.896 78.8447 89.2057 79.4654 89.4153 80.2475L91.0316 86.2797L89.1855 86.7744L87.6287 80.9644C87.4445 80.277 87.1216 79.7878 86.6598 79.4969C86.1969 79.2018 85.6526 79.1381 85.027 79.3057C84.5989 79.4204 84.243 79.6151 83.9592 79.8896C83.6795 80.1631 83.4909 80.5048 83.3934 80.9147C83.2989 81.3195 83.319 81.7729 83.4535 82.2751ZM97.1073 84.8503C96.3417 85.0554 95.606 85.043 94.9003 84.813C94.1976 84.5777 93.5778 84.1416 93.0409 83.5046C92.5071 82.8624 92.1028 82.0288 91.8282 81.0039C91.5536 79.9789 91.4895 79.0564 91.6359 78.2363C91.7864 77.4151 92.1103 76.7305 92.6076 76.1826C93.1049 75.6346 93.7343 75.2587 94.4958 75.0546C95.0844 74.8969 95.5842 74.8688 95.9953 74.9705C96.4093 75.0669 96.7499 75.2183 97.017 75.4246C97.2881 75.6299 97.5058 75.8165 97.6698 75.9842L97.781 75.9545L96.522 71.2559L98.3681 70.7612L101.756 83.4061L99.9534 83.8891L99.558 82.4135L99.4036 82.4549C99.3465 82.6863 99.2478 82.9598 99.1073 83.2754C98.971 83.5899 98.7477 83.8924 98.4373 84.1829C98.1269 84.4734 97.6836 84.6959 97.1073 84.8503ZM97.0929 83.1667C97.6239 83.0244 98.0351 82.7642 98.3264 82.3861C98.6208 82.0029 98.7953 81.5348 98.8501 80.9819C98.909 80.4279 98.8491 79.8174 98.6705 79.1506C98.494 78.492 98.2449 77.9411 97.9232 77.4979C97.6015 77.0547 97.2206 76.7443 96.7803 76.5667C96.3401 76.3891 95.8504 76.3725 95.3112 76.517C94.7555 76.6659 94.331 76.934 94.0378 77.3214C93.7445 77.7088 93.5699 78.1769 93.5141 78.7257C93.4623 79.2734 93.5202 79.8601 93.6879 80.4857C93.8577 81.1196 94.1051 81.6643 94.4301 82.1199C94.7551 82.5754 95.1426 82.9018 95.5924 83.0989C96.0453 83.2907 96.5455 83.3133 97.0929 83.1667ZM107.207 82.1705C106.606 82.3315 106.033 82.3659 105.488 82.2738C104.942 82.1776 104.469 81.9535 104.07 81.6015C103.676 81.2484 103.395 80.7611 103.229 80.1395C103.085 79.6044 103.07 79.1364 103.183 78.7355C103.296 78.3346 103.501 77.9865 103.797 77.691C104.093 77.3956 104.443 77.1385 104.847 76.9198C105.252 76.7011 105.672 76.5049 106.106 76.3311C106.656 76.1131 107.103 75.936 107.446 75.8C107.788 75.6599 108.026 75.5189 108.16 75.3771C108.294 75.2353 108.331 75.0533 108.271 74.831L108.26 74.7878C108.115 74.2486 107.851 73.8716 107.467 73.6568C107.087 73.441 106.599 73.413 106.002 73.573C105.381 73.7395 104.928 74.0086 104.643 74.3804C104.362 74.7469 104.198 75.1151 104.152 75.4849L102.311 75.5546C102.362 74.9232 102.538 74.3775 102.839 73.9177C103.142 73.4526 103.531 73.0703 104.007 72.7708C104.482 72.4672 105.005 72.2387 105.577 72.0854C105.956 71.9839 106.369 71.9217 106.817 71.8986C107.269 71.8704 107.711 71.9239 108.144 72.0593C108.582 72.1935 108.978 72.4468 109.334 72.8192C109.688 73.1874 109.958 73.7173 110.144 74.4088L111.831 80.7065L110.028 81.1896L109.681 79.893L109.607 79.9129C109.551 80.1836 109.435 80.4662 109.258 80.7607C109.081 81.0551 108.826 81.3287 108.492 81.5814C108.158 81.834 107.73 82.0304 107.207 82.1705ZM107.212 80.5811C107.722 80.4443 108.131 80.2266 108.439 79.9278C108.752 79.628 108.959 79.2901 109.061 78.9142C109.166 78.5331 109.169 78.1552 109.068 77.7806L108.741 76.5581C108.693 76.6417 108.582 76.7376 108.408 76.8459C108.237 76.9491 108.038 77.0532 107.81 77.1584C107.581 77.2594 107.358 77.3567 107.14 77.4503C106.922 77.5397 106.739 77.6152 106.592 77.6766C106.246 77.8178 105.939 77.9816 105.672 78.1681C105.408 78.3534 105.215 78.5706 105.092 78.8197C104.972 79.0636 104.956 79.3502 105.044 79.6795C105.167 80.1364 105.428 80.4369 105.828 80.5811C106.228 80.7212 106.689 80.7212 107.212 80.5811ZM114.627 73.9221L116.136 79.553L114.29 80.0477L111.749 70.564L113.521 70.0892L113.934 71.6328L114.052 71.6013C114.135 71.0407 114.369 70.5458 114.752 70.1166C115.14 69.6862 115.69 69.3757 116.402 69.1849C117.048 69.0117 117.651 68.9959 118.209 69.1374C118.767 69.2748 119.25 69.5732 119.66 70.0325C120.07 70.4918 120.379 71.1124 120.589 71.8945L122.205 77.9267L120.359 78.4214L118.802 72.6114C118.618 71.924 118.295 71.4349 117.834 71.1439C117.371 70.8488 116.826 70.7851 116.201 70.9527C115.773 71.0674 115.417 71.2621 115.133 71.5366C114.853 71.8101 114.665 72.1518 114.567 72.5617C114.473 72.9665 114.493 73.4199 114.627 73.9221ZM128.727 76.3843C127.809 76.6303 126.963 76.6342 126.189 76.396C125.418 76.1527 124.757 75.71 124.205 75.0681C123.654 74.4261 123.251 73.6297 122.996 72.6789C122.738 71.7157 122.691 70.8172 122.856 69.9833C123.02 69.1454 123.375 68.4303 123.923 67.8381C124.47 67.2459 125.19 66.8301 126.083 66.5908C126.804 66.3978 127.482 66.3595 128.117 66.4759C128.752 66.5883 129.306 66.8369 129.779 67.2217C130.257 67.6054 130.615 68.1075 130.851 68.7278L129.055 69.2092C128.837 68.7912 128.508 68.469 128.068 68.2428C127.632 68.0155 127.12 67.9807 126.531 68.1384C126.016 68.2763 125.602 68.5329 125.288 68.9082C124.977 69.2784 124.781 69.7411 124.7 70.2965C124.619 70.8478 124.668 71.461 124.849 72.136C125.035 72.8276 125.299 73.3963 125.644 73.8422C125.988 74.2881 126.389 74.5977 126.846 74.7709C127.306 74.943 127.798 74.959 128.321 74.819C128.671 74.7252 128.971 74.5765 129.221 74.3728C129.473 74.1639 129.664 73.9121 129.792 73.6174C129.925 73.3216 129.985 72.9924 129.971 72.6298L131.768 72.1484C131.866 72.7793 131.813 73.3802 131.609 73.9512C131.405 74.5221 131.06 75.0205 130.574 75.4462C130.092 75.8709 129.476 76.1836 128.727 76.3843ZM138.685 73.7162C137.75 73.9666 136.892 73.9826 136.11 73.7642C135.331 73.5406 134.661 73.1136 134.099 72.4832C133.541 71.8476 133.13 71.0379 132.866 70.0541C132.606 69.0827 132.557 68.178 132.721 67.34C132.889 66.501 133.244 65.7859 133.788 65.1948C134.335 64.6026 135.049 64.1885 135.93 63.9525C136.465 63.8091 137.007 63.7586 137.557 63.8011C138.106 63.8435 138.631 64.0006 139.132 64.2723C139.633 64.544 140.08 64.9515 140.472 65.4948C140.864 66.034 141.175 66.7337 141.405 67.594L141.581 68.2485L134.042 70.2685L133.671 68.8854L139.401 67.3502C139.271 66.8645 139.057 66.4608 138.759 66.1392C138.46 65.8134 138.102 65.5894 137.685 65.4672C137.273 65.3439 136.828 65.3463 136.351 65.4742C135.832 65.6132 135.413 65.8621 135.095 66.221C134.779 66.5746 134.571 66.9833 134.47 67.4471C134.373 67.9056 134.387 68.3715 134.514 68.8449L134.804 69.9254C134.973 70.5593 135.229 71.0687 135.57 71.4537C135.916 71.8376 136.322 72.0928 136.788 72.2193C137.253 72.3418 137.755 72.3307 138.295 72.1862C138.645 72.0925 138.95 71.9576 139.212 71.7816C139.473 71.6015 139.681 71.3825 139.837 71.1246C139.992 70.8666 140.086 70.5746 140.118 70.2484L141.95 70.0951C141.948 70.6471 141.817 71.1651 141.559 71.6491C141.303 72.1279 140.932 72.5471 140.446 72.9067C139.964 73.2611 139.376 73.531 138.685 73.7162Z" fill="black"/>
<g opacity="0.8" filter="url(#filter1_b_1508_858)">
<rect x="72.8702" y="106.676" width="55" height="9" rx="4.5" transform="rotate(-15 72.8702 106.676)" fill="#F5F0EF"/>
<rect x="73.1764" y="106.853" width="54.5" height="8.5" rx="4.25" transform="rotate(-15 73.1764 106.853)" stroke="black" stroke-opacity="0.03" stroke-width="0.5"/>
</g>
<g opacity="0.8" filter="url(#filter2_b_1508_858)">
<rect x="68.3875" y="128.582" width="75" height="9" rx="4.5" transform="rotate(-15 68.3875 128.582)" fill="#F5F0EF"/>
<rect x="68.6936" y="128.759" width="74.5" height="8.5" rx="4.25" transform="rotate(-15 68.6936 128.759)" stroke="black" stroke-opacity="0.03" stroke-width="0.5"/>
</g>
</g>
<g filter="url(#filter3_d_1508_858)">
<rect x="110.891" y="36.2461" width="107" height="119" rx="10" transform="rotate(-8 110.891 36.2461)" fill="white"/>
<path d="M146.707 58.9373C146.901 60.3214 146.815 61.547 146.449 62.614C146.082 63.6769 145.495 64.5382 144.689 65.1981C143.886 65.8532 142.925 66.2593 141.807 66.4165C140.684 66.5742 139.645 66.4492 138.688 66.0415C137.735 65.6289 136.935 64.9603 136.289 64.0355C135.642 63.1108 135.222 61.9585 135.028 60.5786C134.834 59.1945 134.92 57.971 135.287 56.9081C135.654 55.8411 136.238 54.98 137.041 54.3249C137.848 53.6651 138.812 53.2562 139.935 53.0985C141.053 52.9413 142.089 53.069 143.042 53.4816C143.999 53.8893 144.8 54.5556 145.446 55.4803C146.092 56.4008 146.512 57.5531 146.707 58.9373ZM144.77 59.2095C144.622 58.1545 144.326 57.2902 143.883 56.6167C143.443 55.9383 142.902 55.455 142.259 55.1666C141.62 54.8735 140.928 54.7791 140.186 54.8835C139.439 54.9885 138.799 55.27 138.265 55.728C137.73 56.1818 137.343 56.7956 137.103 57.5694C136.867 58.3385 136.823 59.2505 136.972 60.3055C137.12 61.3604 137.414 62.2271 137.853 62.9055C138.297 63.5791 138.838 64.0624 139.477 64.3555C140.116 64.6445 140.809 64.7364 141.556 64.6315C142.298 64.5271 142.937 64.248 143.471 63.7942C144.009 63.3356 144.396 62.7218 144.633 61.9527C144.872 61.1789 144.918 60.2645 144.77 59.2095ZM155.497 60.2L154.697 54.5094L156.596 54.2426L157.962 63.9652L156.101 64.2267L155.865 62.543L155.764 62.5572C155.613 63.1077 155.315 63.5907 154.87 64.0061C154.428 64.4167 153.843 64.6733 153.113 64.7759C152.488 64.8637 151.916 64.8042 151.396 64.5975C150.88 64.386 150.447 64.0274 150.096 63.5216C149.75 63.0151 149.52 62.3611 149.407 61.5593L148.538 55.375L150.431 55.109L151.268 61.0654C151.361 61.7279 151.619 62.2296 152.041 62.5705C152.463 62.9113 152.968 63.0405 153.554 62.9581C153.909 62.9083 154.249 62.7701 154.574 62.5437C154.903 62.3166 155.159 62.0074 155.341 61.6161C155.527 61.2242 155.579 60.7522 155.497 60.2ZM163.677 53.2473L163.891 54.7665L158.58 55.5129L158.367 53.9937L163.677 53.2473ZM159.464 51.4641L161.356 51.1982L162.649 60.3954C162.7 60.7625 162.794 61.0312 162.93 61.2015C163.065 61.3675 163.224 61.4721 163.406 61.5154C163.593 61.5537 163.789 61.5584 163.996 61.5293C164.148 61.508 164.279 61.4788 164.39 61.4417C164.501 61.4045 164.587 61.3752 164.649 61.3536L165.21 62.8691C165.107 62.9267 164.956 62.9908 164.76 63.0615C164.564 63.1364 164.314 63.1973 164.011 63.2442C163.514 63.3226 163.038 63.2993 162.581 63.1741C162.124 63.0489 161.736 62.8109 161.416 62.46C161.095 62.1091 160.894 61.6404 160.811 61.0539L159.464 51.4641ZM167.137 62.6757L165.771 52.9531L167.664 52.6871L169.03 62.4097L167.137 62.6757ZM166.516 51.3186C166.187 51.3648 165.889 51.2949 165.622 51.1086C165.358 50.9176 165.205 50.6681 165.161 50.36C165.117 50.0477 165.196 49.7656 165.397 49.5135C165.602 49.2566 165.869 49.1051 166.198 49.0588C166.528 49.0126 166.824 49.085 167.087 49.276C167.355 49.4622 167.51 49.7115 167.554 50.0237C167.597 50.3318 167.517 50.6142 167.312 50.8711C167.11 51.1232 166.845 51.2723 166.516 51.3186ZM172.658 56.0131L173.469 61.7859L171.576 62.0519L170.21 52.3292L172.027 52.0739L172.249 53.6564L172.369 53.6395C172.52 53.0932 172.813 52.6305 173.246 52.2512C173.683 51.8713 174.266 51.63 174.996 51.5274C175.659 51.4343 176.259 51.492 176.796 51.7006C177.332 51.9049 177.776 52.2599 178.127 52.7658C178.478 53.2716 178.709 53.9254 178.822 54.7272L179.691 60.9114L177.799 61.1774L176.961 55.221C176.862 54.5163 176.601 53.9914 176.179 53.6463C175.755 53.297 175.223 53.1675 174.581 53.2576C174.142 53.3193 173.765 53.4691 173.45 53.707C173.139 53.9444 172.91 54.2605 172.764 54.6555C172.621 55.0457 172.585 55.4982 172.658 56.0131ZM186.847 63.8303C186.074 63.9389 185.396 63.931 184.81 63.8067C184.229 63.6818 183.74 63.4773 183.343 63.1932C182.945 62.9091 182.632 62.5808 182.404 62.2084L183.936 61.3089C184.076 61.4785 184.256 61.6534 184.475 61.8335C184.698 62.0172 184.985 62.1598 185.335 62.2612C185.689 62.362 186.128 62.3757 186.651 62.3022C187.369 62.2013 187.937 61.9429 188.356 61.5268C188.776 61.1149 188.932 60.5292 188.826 59.7696L188.557 57.858L188.437 57.8749C188.352 58.0977 188.22 58.3508 188.04 58.6343C187.865 58.9171 187.604 59.1775 187.259 59.4153C186.914 59.6532 186.444 59.814 185.849 59.8976C185.081 60.0055 184.363 59.9234 183.697 59.6513C183.034 59.3744 182.474 58.9088 182.016 58.2545C181.562 57.5954 181.262 56.7489 181.117 55.715C180.971 54.6811 181.022 53.7703 181.268 52.9826C181.519 52.1943 181.925 51.5607 182.486 51.0816C183.046 50.5984 183.717 50.3019 184.498 50.1922C185.101 50.1073 185.603 50.1401 186.002 50.2905C186.402 50.4366 186.723 50.6281 186.967 50.8649C187.216 51.1011 187.411 51.3125 187.554 51.499L187.693 51.4794L187.471 49.9033L189.326 49.6427L190.723 59.5805C190.84 60.416 190.742 61.1291 190.429 61.7195C190.117 62.31 189.647 62.7805 189.021 63.1311C188.398 63.481 187.674 63.7141 186.847 63.8303ZM186.046 58.2691C186.59 58.1926 187.032 58.0013 187.372 57.6953C187.716 57.3845 187.951 56.9771 188.078 56.473C188.209 55.964 188.227 55.3741 188.133 54.7031C188.041 54.049 187.863 53.4866 187.599 53.016C187.335 52.5453 186.995 52.1971 186.581 51.9714C186.165 51.7414 185.681 51.6653 185.129 51.743C184.559 51.8231 184.105 52.0375 183.767 52.3862C183.428 52.7308 183.197 53.1678 183.073 53.6972C182.954 54.2261 182.938 54.8007 183.025 55.421C183.114 56.0582 183.29 56.6037 183.552 57.0575C183.813 57.5113 184.153 57.8465 184.571 58.0632C184.993 58.2793 185.485 58.3479 186.046 58.2691ZM199.483 50.6357L197.811 51.1806C197.708 50.9712 197.565 50.7784 197.381 50.602C197.201 50.425 196.972 50.2916 196.692 50.2018C196.413 50.1119 196.077 50.0946 195.684 50.1498C195.148 50.2251 194.718 50.4082 194.393 50.6992C194.068 50.9859 193.931 51.317 193.984 51.6926C194.03 52.0175 194.187 52.2623 194.455 52.4268C194.724 52.5913 195.135 52.6992 195.688 52.7505L197.283 52.8879C198.206 52.969 198.918 53.1938 199.417 53.5626C199.917 53.9313 200.215 54.4596 200.311 55.1475C200.393 55.7298 200.297 56.2726 200.024 56.7758C199.754 57.2742 199.337 57.6942 198.774 58.0358C198.215 58.3768 197.544 58.6025 196.759 58.7128C195.67 58.8658 194.749 58.7586 193.996 58.3911C193.242 58.0193 192.727 57.414 192.45 56.5751L194.24 56.0395C194.421 56.5003 194.706 56.8282 195.095 57.0231C195.483 57.2139 195.962 57.2692 196.532 57.1891C197.152 57.1019 197.63 56.9035 197.965 56.5939C198.299 56.2801 198.44 55.9354 198.388 55.5599C198.345 55.256 198.195 55.0167 197.938 54.842C197.685 54.6666 197.32 54.5588 196.84 54.5186L195.144 54.3891C194.208 54.3098 193.49 54.075 192.992 53.6845C192.498 53.2935 192.203 52.7519 192.106 52.0599C192.025 51.486 192.115 50.9613 192.375 50.4858C192.635 50.0103 193.031 49.6125 193.563 49.2925C194.094 48.9683 194.724 48.7549 195.454 48.6523C196.505 48.5046 197.364 48.6162 198.032 48.9872C198.699 49.3539 199.183 49.9034 199.483 50.6357Z" fill="black"/>
<g opacity="0.8" filter="url(#filter4_b_1508_858)">
<rect x="143.457" y="81.1504" width="55" height="9" rx="4.5" transform="rotate(-8 143.457 81.1504)" fill="#F5F0EF"/>
<rect x="143.74" y="81.3632" width="54.5" height="8.5" rx="4.25" transform="rotate(-8 143.74 81.3632)" stroke="black" stroke-opacity="0.03" stroke-width="0.5"/>
</g>
<g opacity="0.8" filter="url(#filter5_b_1508_858)">
<rect x="136.338" y="102.348" width="75" height="9" rx="4.5" transform="rotate(-8 136.338 102.348)" fill="#F5F0EF"/>
<rect x="136.62" y="102.56" width="74.5" height="8.5" rx="4.25" transform="rotate(-8 136.62 102.56)" stroke="black" stroke-opacity="0.03" stroke-width="0.5"/>
</g>
</g>
<g filter="url(#filter6_d_1508_858)">
<rect x="209.196" y="15" width="119" height="119" rx="10" transform="rotate(6 209.196 15)" fill="white"/>
<circle cx="264.712" cy="56.0275" r="19" transform="rotate(6 264.712 56.0275)" fill="#2567F6"/>
<path d="M271.57 64.8546L271.753 63.1141C271.85 62.191 271.577 61.2671 270.993 60.5457C270.408 59.8243 269.562 59.3645 268.638 59.2675L261.677 58.5358C260.754 58.4387 259.83 58.7124 259.108 59.2966C258.387 59.8808 257.927 60.7276 257.83 61.6507L257.647 63.3912" stroke="white" stroke-width="2" stroke-linecap="round" stroke-linejoin="round"/>
<path d="M265.523 55.4213C267.446 55.6233 269.168 54.2287 269.37 52.3063C269.572 50.3839 268.178 48.6617 266.255 48.4596C264.333 48.2575 262.61 49.6522 262.408 51.5746C262.206 53.497 263.601 55.2192 265.523 55.4213Z" stroke="white" stroke-width="2" stroke-linecap="round" stroke-linejoin="round"/>
<path d="M230.122 86.7466L228.139 86.5381C228.107 86.1063 228.005 85.7184 227.831 85.3745C227.657 85.0306 227.431 84.7305 227.154 84.4743C226.877 84.218 226.558 84.0131 226.197 83.8595C225.84 83.7063 225.454 83.6079 225.039 83.5642C224.289 83.4854 223.597 83.6034 222.964 83.9182C222.335 84.2335 221.811 84.7375 221.391 85.4304C220.975 86.1237 220.712 86.9959 220.602 88.0469C220.491 89.1064 220.566 90.0184 220.829 90.783C221.095 91.548 221.506 92.1482 222.06 92.5835C222.614 93.0188 223.262 93.2754 224.003 93.3534C224.415 93.3966 224.81 93.3825 225.19 93.3111C225.575 93.2358 225.93 93.1038 226.254 92.9151C226.578 92.7263 226.861 92.4839 227.102 92.1879C227.347 91.8881 227.532 91.5348 227.657 91.1279L229.639 91.3427C229.466 91.9715 229.199 92.539 228.837 93.0452C228.48 93.5475 228.044 93.9687 227.528 94.3087C227.017 94.6449 226.447 94.8872 225.819 95.0354C225.191 95.1836 224.519 95.22 223.802 95.1447C222.675 95.0263 221.699 94.6537 220.873 94.0271C220.048 93.3962 219.434 92.5539 219.031 91.5003C218.631 90.4471 218.505 89.2276 218.65 87.8418C218.796 86.4517 219.176 85.2854 219.789 84.343C220.403 83.3962 221.179 82.7022 222.116 82.2609C223.054 81.8153 224.085 81.6515 225.208 81.7696C225.899 81.8422 226.533 82.0095 227.109 82.2715C227.691 82.5297 228.201 82.8746 228.639 83.3064C229.079 83.7339 229.426 84.2375 229.682 84.8172C229.939 85.3926 230.086 86.0357 230.122 86.7466ZM235.489 96.3924C234.574 96.2962 233.797 96.0024 233.159 95.5111C232.521 95.0199 232.053 94.3772 231.755 93.5832C231.457 92.7892 231.361 91.8879 231.467 90.8792C231.573 89.8663 231.855 89.0004 232.312 88.2814C232.769 87.5625 233.36 87.0291 234.087 86.6812C234.813 86.3334 235.634 86.2076 236.55 86.3038C237.465 86.4 238.242 86.6937 238.88 87.185C239.518 87.6763 239.986 88.3211 240.284 89.1193C240.581 89.9176 240.677 90.8231 240.57 91.836C240.464 92.8447 240.183 93.7063 239.726 94.4211C239.27 95.1358 238.678 95.6671 237.952 96.0149C237.226 96.3628 236.405 96.4886 235.489 96.3924ZM235.663 94.7974C236.257 94.8598 236.765 94.7547 237.188 94.482C237.61 94.2094 237.943 93.8222 238.184 93.3206C238.429 92.8193 238.585 92.2551 238.651 91.6279C238.716 91.0049 238.681 90.4227 238.545 89.8814C238.414 89.3363 238.17 88.8843 237.814 88.5255C237.457 88.1667 236.982 87.9561 236.389 87.8937C235.791 87.8309 235.279 87.9377 234.851 88.2141C234.428 88.491 234.093 88.8822 233.847 89.3876C233.606 89.8893 233.453 90.4516 233.387 91.0746C233.321 91.7019 233.354 92.2859 233.486 92.8268C233.622 93.3681 233.868 93.8161 234.225 94.1707C234.586 94.5257 235.066 94.7346 235.663 94.7974ZM245.452 84.0773L244.084 97.0965L242.183 96.8967L243.552 83.8775L245.452 84.0773ZM249.91 84.5458L248.542 97.565L246.641 97.3652L248.01 84.346L249.91 84.5458ZM255.287 98.4732C254.325 98.3721 253.518 98.0794 252.866 97.5953C252.219 97.1074 251.746 96.4685 251.448 95.6787C251.154 94.8852 251.06 93.9819 251.167 92.9691C251.272 91.9689 251.551 91.107 252.004 90.3833C252.462 89.6601 253.05 89.1199 253.768 88.7627C254.492 88.4059 255.307 88.2752 256.214 88.3705C256.764 88.4284 257.289 88.5757 257.787 88.8123C258.285 89.0488 258.719 89.3837 259.089 89.8168C259.459 90.2499 259.73 90.7904 259.902 91.4383C260.074 92.082 260.114 92.8468 260.02 93.7325L259.95 94.4063L252.188 93.5905L252.337 92.1666L258.237 92.7866C258.289 92.2865 258.234 91.833 258.071 91.4259C257.909 91.0146 257.655 90.6773 257.31 90.4139C256.969 90.151 256.553 89.9937 256.061 89.9421C255.527 89.8859 255.047 89.9683 254.621 90.1892C254.2 90.4063 253.859 90.7133 253.599 91.1101C253.343 91.5032 253.19 91.9434 253.139 92.4307L253.022 93.5432C252.953 94.1959 253.009 94.7631 253.19 95.2448C253.375 95.7271 253.662 96.1108 254.052 96.396C254.443 96.677 254.916 96.8466 255.471 96.905C255.831 96.9428 256.165 96.9265 256.472 96.856C256.78 96.7812 257.053 96.6514 257.291 96.4664C257.529 96.2815 257.721 96.0424 257.867 95.7493L259.632 96.2626C259.433 96.7772 259.125 97.2141 258.711 97.5733C258.3 97.9287 257.804 98.1872 257.221 98.3487C256.644 98.5065 255.999 98.548 255.287 98.4732ZM265.293 103.233C264.518 103.152 263.861 102.98 263.323 102.718C262.789 102.456 262.364 102.139 262.047 101.767C261.731 101.396 261.507 101.002 261.375 100.585L263.079 100.083C263.174 100.281 263.306 100.494 263.475 100.722C263.647 100.954 263.891 101.162 264.206 101.345C264.525 101.529 264.948 101.648 265.473 101.703C266.194 101.779 266.808 101.666 267.315 101.364C267.822 101.065 268.116 100.535 268.196 99.7721L268.398 97.8523L268.277 97.8396C268.141 98.0352 267.951 98.2488 267.708 98.4804C267.47 98.7124 267.154 98.9021 266.761 99.0493C266.369 99.1966 265.874 99.2388 265.276 99.176C264.505 99.095 263.829 98.8418 263.248 98.4165C262.672 97.9875 262.241 97.4001 261.955 96.6545C261.674 95.9051 261.588 95.0113 261.697 93.973C261.806 92.9346 262.075 92.0631 262.505 91.3585C262.939 90.6542 263.486 90.1376 264.146 89.8085C264.807 89.4751 265.529 89.3496 266.313 89.4321C266.919 89.4958 267.398 89.6489 267.75 89.8915C268.102 90.1299 268.367 90.3935 268.547 90.6823C268.731 90.9716 268.869 91.224 268.962 91.4394L269.102 91.4541L269.269 89.8712L271.131 90.067L270.082 100.048C269.994 100.887 269.727 101.555 269.28 102.052C268.834 102.549 268.264 102.892 267.572 103.081C266.883 103.27 266.124 103.321 265.293 103.233ZM265.862 97.6436C266.408 97.7011 266.884 97.6225 267.287 97.4078C267.696 97.1894 268.023 96.851 268.268 96.3926C268.518 95.9304 268.679 95.3624 268.749 94.6885C268.818 94.0316 268.782 93.4429 268.639 92.9223C268.497 92.4017 268.252 91.9818 267.904 91.6624C267.557 91.3388 267.106 91.1479 266.55 91.0895C265.978 91.0294 265.486 91.1276 265.073 91.3842C264.661 91.6365 264.331 92.0046 264.083 92.4884C263.839 92.9727 263.685 93.5263 263.619 94.1493C263.552 94.7893 263.591 95.361 263.735 95.8647C263.879 96.3683 264.127 96.7758 264.48 97.0871C264.837 97.3988 265.298 97.5844 265.862 97.6436ZM276.842 100.739C275.88 100.638 275.073 100.345 274.421 99.8608C273.774 99.3729 273.301 98.734 273.003 97.9443C272.709 97.1507 272.615 96.2475 272.722 95.2346C272.827 94.2344 273.106 93.3725 273.559 92.6489C274.017 91.9257 274.605 91.3854 275.324 91.0282C276.047 90.6715 276.862 90.5407 277.769 90.6361C278.32 90.694 278.844 90.8412 279.342 91.0778C279.84 91.3144 280.274 91.6492 280.644 92.0823C281.014 92.5154 281.285 93.0559 281.457 93.7039C281.629 94.3476 281.669 95.1123 281.576 95.998L281.505 96.6719L273.743 95.8561L273.892 94.4321L279.792 95.0521C279.844 94.552 279.789 94.0985 279.626 93.6914C279.464 93.2802 279.21 92.9428 278.865 92.6795C278.524 92.4165 278.108 92.2593 277.616 92.2076C277.082 92.1515 276.602 92.2338 276.176 92.4547C275.755 92.6718 275.414 92.9788 275.154 93.3756C274.898 93.7687 274.745 94.2089 274.694 94.6963L274.577 95.8088C274.508 96.4614 274.564 97.0286 274.745 97.5104C274.93 97.9926 275.218 98.3763 275.608 98.6615C275.998 98.9425 276.471 99.1122 277.026 99.1705C277.386 99.2084 277.72 99.192 278.027 99.1215C278.335 99.0467 278.608 98.9169 278.846 98.7319C279.084 98.547 279.276 98.308 279.423 98.0149L281.188 98.5281C280.988 99.0428 280.68 99.4796 280.266 99.8388C279.856 100.194 279.359 100.453 278.777 100.614C278.199 100.772 277.554 100.814 276.842 100.739ZM291.384 88.9048L290.015 101.924L288.051 101.718L289.419 88.6984L291.384 88.9048ZM296.358 102.784C295.57 102.701 294.888 102.425 294.311 101.958C293.74 101.486 293.317 100.857 293.044 100.07C292.776 99.2791 292.698 98.356 292.808 97.3008C292.919 96.2455 293.19 95.3613 293.621 94.6481C294.056 93.9354 294.603 93.4124 295.264 93.0791C295.925 92.7457 296.647 92.6202 297.431 92.7027C298.037 92.7663 298.514 92.9193 298.861 93.1615C299.213 93.3998 299.477 93.6632 299.652 93.9516C299.832 94.2404 299.968 94.4926 300.061 94.708L300.175 94.72L300.684 89.8823L302.585 90.0821L301.216 103.101L299.36 102.906L299.52 101.387L299.361 101.37C299.224 101.566 299.034 101.786 298.79 102.03C298.55 102.275 298.233 102.477 297.839 102.637C297.445 102.797 296.952 102.846 296.358 102.784ZM296.948 101.207C297.495 101.264 297.972 101.169 298.38 100.92C298.792 100.668 299.123 100.293 299.372 99.7967C299.625 99.3006 299.788 98.7092 299.86 98.0227C299.932 97.3446 299.897 96.741 299.755 96.212C299.614 95.6829 299.369 95.2566 299.022 94.933C298.674 94.6094 298.223 94.4184 297.668 94.3601C297.096 94.3 296.604 94.3982 296.191 94.6548C295.778 94.9113 295.448 95.2858 295.199 95.7781C294.954 96.2708 294.798 96.8393 294.73 97.4835C294.662 98.1361 294.697 98.7333 294.838 99.2751C294.978 99.8169 295.223 100.26 295.572 100.606C295.926 100.947 296.385 101.147 296.948 101.207Z" fill="black"/>
<g opacity="0.8" filter="url(#filter7_b_1508_858)">
<rect x="231.718" y="106.857" width="55" height="4" rx="2" transform="rotate(6 231.718 106.857)" fill="#F5F0EF"/>
<rect x="231.94" y="107.132" width="54.5" height="3.5" rx="1.75" transform="rotate(6 231.94 107.132)" stroke="black" stroke-opacity="0.03" stroke-width="0.5"/>
</g>
<g opacity="0.8" filter="url(#filter8_b_1508_858)">
<rect x="220.623" y="116.752" width="75" height="6" rx="3" transform="rotate(6 220.623 116.752)" fill="#F5F0EF"/>
<rect x="220.845" y="117.027" width="74.5" height="5.5" rx="2.75" transform="rotate(6 220.845 117.027)" stroke="black" stroke-opacity="0.03" stroke-width="0.5"/>
</g>
</g>
</g>
<defs>
<filter id="filter0_d_1508_858" x="-23" y="-10.8545" width="250.302" height="241.109" filterUnits="userSpaceOnUse" color-interpolation-filters="sRGB">
<feFlood flood-opacity="0" result="BackgroundImageFix"/>
<feColorMatrix in="SourceAlpha" type="matrix" values="0 0 0 0 0 0 0 0 0 0 0 0 0 0 0 0 0 0 127 0" result="hardAlpha"/>
<feMorphology radius="2" operator="dilate" in="SourceAlpha" result="effect1_dropShadow_1508_858"/>
<feOffset/>
<feGaussianBlur stdDeviation="22"/>
<feColorMatrix type="matrix" values="0 0 0 0 0.764706 0 0 0 0 0.639216 0 0 0 0 0.623529 0 0 0 0.45 0"/>
<feBlend mode="normal" in2="BackgroundImageFix" result="effect1_dropShadow_1508_858"/>
<feBlend mode="normal" in="SourceGraphic" in2="effect1_dropShadow_1508_858" result="shape"/>
</filter>
<filter id="filter1_b_1508_858" x="69.8805" y="89.4512" width="61.4348" height="28.9072" filterUnits="userSpaceOnUse" color-interpolation-filters="sRGB">
<feFlood flood-opacity="0" result="BackgroundImageFix"/>
<feGaussianBlur in="BackgroundImageFix" stdDeviation="2"/>
<feComposite in2="SourceAlpha" operator="in" result="effect1_backgroundBlur_1508_858"/>
<feBlend mode="normal" in="SourceGraphic" in2="effect1_backgroundBlur_1508_858" result="shape"/>
</filter>
<filter id="filter2_b_1508_858" x="65.3977" y="106.181" width="80.7533" height="34.084" filterUnits="userSpaceOnUse" color-interpolation-filters="sRGB">
<feFlood flood-opacity="0" result="BackgroundImageFix"/>
<feGaussianBlur in="BackgroundImageFix" stdDeviation="2"/>
<feComposite in2="SourceAlpha" operator="in" result="effect1_backgroundBlur_1508_858"/>
<feBlend mode="normal" in="SourceGraphic" in2="effect1_backgroundBlur_1508_858" result="shape"/>
</filter>
<filter id="filter3_d_1508_858" x="64.8907" y="-24.6455" width="214.52" height="224.733" filterUnits="userSpaceOnUse" color-interpolation-filters="sRGB">
<feFlood flood-opacity="0" result="BackgroundImageFix"/>
<feColorMatrix in="SourceAlpha" type="matrix" values="0 0 0 0 0 0 0 0 0 0 0 0 0 0 0 0 0 0 127 0" result="hardAlpha"/>
<feMorphology radius="2" operator="dilate" in="SourceAlpha" result="effect1_dropShadow_1508_858"/>
<feOffset/>
<feGaussianBlur stdDeviation="22"/>
<feColorMatrix type="matrix" values="0 0 0 0 0.764706 0 0 0 0 0.639216 0 0 0 0 0.623529 0 0 0 0.45 0"/>
<feBlend mode="normal" in2="BackgroundImageFix" result="effect1_dropShadow_1508_858"/>
<feBlend mode="normal" in="SourceGraphic" in2="effect1_dropShadow_1508_858" result="shape"/>
</filter>
<filter id="filter4_b_1508_858" x="140.039" y="70.0781" width="62.5535" height="23.4023" filterUnits="userSpaceOnUse" color-interpolation-filters="sRGB">
<feFlood flood-opacity="0" result="BackgroundImageFix"/>
<feGaussianBlur in="BackgroundImageFix" stdDeviation="2"/>
<feComposite in2="SourceAlpha" operator="in" result="effect1_backgroundBlur_1508_858"/>
<feBlend mode="normal" in="SourceGraphic" in2="effect1_backgroundBlur_1508_858" result="shape"/>
</filter>
<filter id="filter5_b_1508_858" x="132.92" y="88.4912" width="82.3589" height="26.1865" filterUnits="userSpaceOnUse" color-interpolation-filters="sRGB">
<feFlood flood-opacity="0" result="BackgroundImageFix"/>
<feGaussianBlur in="BackgroundImageFix" stdDeviation="2"/>
<feComposite in2="SourceAlpha" operator="in" result="effect1_backgroundBlur_1508_858"/>
<feBlend mode="normal" in="SourceGraphic" in2="effect1_backgroundBlur_1508_858" result="shape"/>
</filter>
<filter id="filter6_d_1508_858" x="150.757" y="-31" width="222.787" height="222.787" filterUnits="userSpaceOnUse" color-interpolation-filters="sRGB">
<feFlood flood-opacity="0" result="BackgroundImageFix"/>
<feColorMatrix in="SourceAlpha" type="matrix" values="0 0 0 0 0 0 0 0 0 0 0 0 0 0 0 0 0 0 127 0" result="hardAlpha"/>
<feMorphology radius="2" operator="dilate" in="SourceAlpha" result="effect1_dropShadow_1508_858"/>
<feOffset/>
<feGaussianBlur stdDeviation="22"/>
<feColorMatrix type="matrix" values="0 0 0 0 0.764706 0 0 0 0 0.639216 0 0 0 0 0.623529 0 0 0 0.45 0"/>
<feBlend mode="normal" in2="BackgroundImageFix" result="effect1_dropShadow_1508_858"/>
<feBlend mode="normal" in="SourceGraphic" in2="effect1_dropShadow_1508_858" result="shape"/>
</filter>
<filter id="filter7_b_1508_858" x="227.498" y="103.056" width="62.7209" height="17.3311" filterUnits="userSpaceOnUse" color-interpolation-filters="sRGB">
<feFlood flood-opacity="0" result="BackgroundImageFix"/>
<feGaussianBlur in="BackgroundImageFix" stdDeviation="2"/>
<feComposite in2="SourceAlpha" operator="in" result="effect1_backgroundBlur_1508_858"/>
<feBlend mode="normal" in="SourceGraphic" in2="effect1_backgroundBlur_1508_858" result="shape"/>
</filter>
<filter id="filter8_b_1508_858" x="216.293" y="113.049" width="82.6226" height="21.2129" filterUnits="userSpaceOnUse" color-interpolation-filters="sRGB">
<feFlood flood-opacity="0" result="BackgroundImageFix"/>
<feGaussianBlur in="BackgroundImageFix" stdDeviation="2"/>
<feComposite in2="SourceAlpha" operator="in" result="effect1_backgroundBlur_1508_858"/>
<feBlend mode="normal" in="SourceGraphic" in2="effect1_backgroundBlur_1508_858" result="shape"/>
</filter>
</defs>
</svg>
